<svg width="32" height="33" viewBox="0 0 32 33" fill="none" xmlns="http://www.w3.org/2000/svg">
<path fill-rule="evenodd" clip-rule="evenodd" d="M0 16.5C0 7.66344 7.16344 0.5 16 0.5C24.8366 0.5 32 7.66344 32 16.5C32 25.3366 24.8366 32.5 16 32.5C7.16344 32.5 0 25.3366 0 16.5ZM16 8.5C20.4 8.5 24 12.1 24 16.5C24 20.5 21.1 23.9 17.1 24.5V18.8H19L19.4 16.5H17.2V15C17.2 14.4 17.5 13.8 18.5 13.8H19.5V11.8C19.5 11.8 18.6 11.6 17.7 11.6C15.9 11.6 14.7 12.7 14.7 14.7V16.5H12.7V18.8H14.7V24.4C10.9 23.8 8 20.5 8 16.5C8 12.1 11.6 8.5 16 8.5Z" fill="#C0B7E8"/>
</svg>
