<svg width="70" height="70" viewBox="0 0 70 70" fill="none" xmlns="http://www.w3.org/2000/svg">
<path fill-rule="evenodd" clip-rule="evenodd" d="M34.9997 5.83337C46.2755 5.83337 55.4163 14.9742 55.4163 26.25C55.4163 29.6594 54.5831 32.8718 53.1036 35.6984L34.9997 67.0834L17.3151 36.4596C15.5747 33.4542 14.583 29.9693 14.583 26.25C14.583 14.9742 23.7239 5.83337 34.9997 5.83337ZM34.9997 11.6667C26.9455 11.6667 20.4163 18.1959 20.4163 26.25C20.4163 28.566 20.9506 30.7882 21.9617 32.7943L22.4517 33.6893L34.9997 55.4167L47.6363 33.5363C48.9068 31.3423 49.583 28.8555 49.583 26.25C49.583 18.1959 43.0538 11.6667 34.9997 11.6667ZM34.9997 17.5C39.8322 17.5 43.7497 21.4175 43.7497 26.25C43.7497 31.0825 39.8322 35 34.9997 35C30.1672 35 26.2497 31.0825 26.2497 26.25C26.2497 21.4175 30.1672 17.5 34.9997 17.5ZM34.9997 23.3334C33.3888 23.3334 32.083 24.6392 32.083 26.25C32.083 27.8609 33.3888 29.1667 34.9997 29.1667C36.6105 29.1667 37.9163 27.8609 37.9163 26.25C37.9163 24.6392 36.6105 23.3334 34.9997 23.3334Z" fill="#C0B7E8"/>
</svg>
