<svg width="34" height="33" viewBox="0 0 34 33" fill="none" xmlns="http://www.w3.org/2000/svg">
<g clip-path="url(#clip0_107_1078)">
<path d="M6.8 0C3.0328 0 0 2.9436 0 6.6V26.4C0 30.0564 3.0328 33 6.8 33H27.2C30.9672 33 34 30.0564 34 26.4V6.6C34 2.9436 30.9672 0 27.2 0H6.8ZM17.0312 4.22619L25.9602 12.549C26.2499 12.8274 26.151 13.3997 25.9336 13.4462L21.9121 13.4411L21.9074 23.6118C21.8455 24.2568 21.223 24.6377 20.6902 24.6611L13.2633 24.6507C13.0026 24.6616 12.2049 24.3941 12.1158 23.6298V13.443H8.13609C7.90756 13.3701 7.65031 12.9997 8.13609 12.4949L17.0312 4.22619ZM8.7457 27.2817H25.2543C25.7359 27.2817 26.1236 27.658 26.1236 28.1254V28.8615C26.1236 29.3289 25.7359 29.7052 25.2543 29.7052H8.7457C8.26414 29.7052 7.87645 29.3289 7.87645 28.8615V28.1254C7.87645 27.658 8.26414 27.2817 8.7457 27.2817Z" fill="white"/>
</g>
<defs>
<clipPath id="clip0_107_1078">
<rect width="34" height="33" fill="white"/>
</clipPath>
</defs>
</svg>
